<?xml version="1.0" encoding="UTF-8"?>
<!DOCTYPE svg PUBLIC "-//W3C//DTD SVG 1.1//EN" "http://www.w3.org/Graphics/SVG/1.1/DTD/svg11.dtd">
<svg xmlns="http://www.w3.org/2000/svg" version="1.1" width="292px" height="292px" style="shape-rendering:geometricPrecision; text-rendering:geometricPrecision; image-rendering:optimizeQuality; fill-rule:evenodd; clip-rule:evenodd" xmlns:xlink="http://www.w3.org/1999/xlink">
<g><path style="opacity:1" fill="#ffffff" d="M 69.5,247.5 C 69.5,252.5 69.5,257.5 69.5,262.5C 64.8333,262.5 60.1667,262.5 55.5,262.5C 36.6174,261.451 26.4507,251.451 25,232.5C 24.6667,207.5 24.3333,182.5 24,157.5C 22.8333,155 21,153.167 18.5,152C 13.8452,151.501 9.17853,151.334 4.5,151.5C 4.5,146.167 4.5,140.833 4.5,135.5C 9.56585,135.66 14.5658,135.16 19.5,134C 21.3783,132.457 22.8783,130.624 24,128.5C 24.3333,103.5 24.6667,78.5 25,53.5C 25.3605,39.2589 32.1938,29.7589 45.5,25C 53.4217,23.2743 61.4217,22.6077 69.5,23C 70.4714,28.0717 70.8047,33.2384 70.5,38.5C 63.4936,37.9072 56.8269,39.0738 50.5,42C 46.634,45.2521 44.4673,49.4187 44,54.5C 43.6667,79.5 43.3333,104.5 43,129.5C 42.1161,136.049 38.6161,140.549 32.5,143C 38.6161,145.451 42.1161,149.951 43,156.5C 43.0353,183.215 43.702,209.882 45,236.5C 46.8333,241 50,244.167 54.5,246C 59.4012,247.325 64.4012,247.825 69.5,247.5 Z"/></g>
<g><path style="opacity:1" fill="#ffffff" d="M 220.5,22.5 C 228.899,22.6733 237.233,23.5066 245.5,25C 257.758,29.9961 264.258,39.1627 265,52.5C 265.333,77.5 265.667,102.5 266,127.5C 266.739,130.573 268.572,132.74 271.5,134C 276.102,135.122 280.768,135.622 285.5,135.5C 285.5,140.833 285.5,146.167 285.5,151.5C 280.821,151.334 276.155,151.501 271.5,152C 268.572,153.26 266.739,155.427 266,158.5C 265.667,183.5 265.333,208.5 265,233.5C 264.729,247.101 258.229,256.268 245.5,261C 237.285,262.968 228.951,263.801 220.5,263.5C 220.5,258.167 220.5,252.833 220.5,247.5C 229.35,249.086 236.85,246.752 243,240.5C 243.667,239.167 244.333,237.833 245,236.5C 246.298,209.882 246.965,183.215 247,156.5C 247.884,149.951 251.384,145.451 257.5,143C 251.384,140.549 247.884,136.049 247,129.5C 246.965,102.785 246.298,76.1178 245,49.5C 243.167,45 240,41.8333 235.5,40C 230.566,38.8399 225.566,38.3399 220.5,38.5C 220.5,33.1667 220.5,27.8333 220.5,22.5 Z"/></g>
<g><path style="opacity:1" fill="#ffffff" d="M 154.5,97.5 C 171.659,98.4967 188.992,98.83 206.5,98.5C 206.5,103.5 206.5,108.5 206.5,113.5C 188.659,113.17 170.992,113.503 153.5,114.5C 153.5,163.833 153.5,213.167 153.5,262.5C 147.833,262.5 142.167,262.5 136.5,262.5C 136.832,212.997 136.499,163.664 135.5,114.5C 118.341,113.503 101.008,113.17 83.5,113.5C 83.5,108.5 83.5,103.5 83.5,98.5C 101.167,98.5 118.833,98.5 136.5,98.5C 136.5,77.1667 136.5,55.8333 136.5,34.5C 142.167,34.5 147.833,34.5 153.5,34.5C 153.169,55.6733 153.503,76.6733 154.5,97.5 Z"/></g>
<g><path style="opacity:0.502" fill="#ffffff" d="M 154.5,97.5 C 153.503,76.6733 153.169,55.6733 153.5,34.5C 147.833,34.5 142.167,34.5 136.5,34.5C 136.5,55.8333 136.5,77.1667 136.5,98.5C 118.833,98.5 101.167,98.5 83.5,98.5C 83.1667,98.5 82.8333,98.5 82.5,98.5C 99.9921,97.5033 117.659,97.1699 135.5,97.5C 135.5,76.1667 135.5,54.8333 135.5,33.5C 141.833,33.5 148.167,33.5 154.5,33.5C 154.5,54.8333 154.5,76.1667 154.5,97.5 Z"/></g>
<g><path style="opacity:0.755" fill="#ffffff" d="M 82.5,98.5 C 82.8333,98.5 83.1667,98.5 83.5,98.5C 83.5,103.5 83.5,108.5 83.5,113.5C 101.008,113.17 118.341,113.503 135.5,114.5C 117.833,114.5 100.167,114.5 82.5,114.5C 82.5,109.167 82.5,103.833 82.5,98.5 Z"/></g>
<g><path style="opacity:0.753" fill="#ffffff" d="M 154.5,97.5 C 172.167,97.5 189.833,97.5 207.5,97.5C 207.5,103.167 207.5,108.833 207.5,114.5C 189.833,114.5 172.167,114.5 154.5,114.5C 154.167,114.5 153.833,114.5 153.5,114.5C 170.992,113.503 188.659,113.17 206.5,113.5C 206.5,108.5 206.5,103.5 206.5,98.5C 188.992,98.83 171.659,98.4967 154.5,97.5 Z"/></g>
<g><path style="opacity:0.504" fill="#ffffff" d="M 135.5,114.5 C 136.499,163.664 136.832,212.997 136.5,262.5C 142.167,262.5 147.833,262.5 153.5,262.5C 153.5,213.167 153.5,163.833 153.5,114.5C 153.833,114.5 154.167,114.5 154.5,114.5C 154.5,164.167 154.5,213.833 154.5,263.5C 148.167,263.5 141.833,263.5 135.5,263.5C 135.5,213.833 135.5,164.167 135.5,114.5 Z"/></g>
<g><path style="opacity:0.251" fill="#ffffff" d="M 69.5,247.5 C 70.4881,252.64 70.8214,257.974 70.5,263.5C 65.3054,263.821 60.3054,263.487 55.5,262.5C 60.1667,262.5 64.8333,262.5 69.5,262.5C 69.5,257.5 69.5,252.5 69.5,247.5 Z"/></g>
</svg>
