<?xml version="1.0" standalone="no"?>
<!DOCTYPE svg PUBLIC "-//W3C//DTD SVG 20010904//EN"
 "http://www.w3.org/TR/2001/REC-SVG-20010904/DTD/svg10.dtd">
<svg version="1.0" xmlns="http://www.w3.org/2000/svg"
 width="2000.000000pt" height="2000.000000pt" viewBox="0 0 2000.000000 2000.000000"
 preserveAspectRatio="xMidYMid meet">
<metadata>
Created by potrace 1.16, written by Peter Selinger 2001-2019
</metadata>
<g transform="translate(0.000000,2000.000000) scale(0.100000,-0.100000)"
fill="#FFFFFF" stroke="none">
<path d="M9881 17689 c-149 -29 -262 -90 -372 -199 -68 -68 -94 -102 -128
-170 -75 -153 -74 -142 -80 -655 l-6 -460 -465 -6 c-451 -5 -467 -6 -530 -28
-125 -44 -200 -91 -291 -181 -73 -73 -94 -100 -132 -180 -25 -52 -51 -120 -58
-150 -17 -68 -17 -259 0 -320 58 -215 184 -371 377 -469 126 -64 134 -65 639
-71 l460 -5 0 -448 c0 -449 0 -449 -385 -674 -212 -124 -441 -257 -510 -297
-181 -105 -2034 -1186 -2170 -1266 -63 -37 -290 -170 -505 -295 -214 -124
-415 -246 -445 -269 -109 -84 -199 -222 -240 -368 -20 -71 -20 -97 -20 -1645
0 -888 -4 -1582 -9 -1595 -8 -22 -80 -61 -921 -501 -41 -22 -160 -84 -265
-139 -104 -55 -241 -127 -302 -159 -646 -338 -1028 -542 -1070 -570 -112 -77
-209 -207 -261 -351 -27 -73 -27 -73 -27 -1713 0 -1640 0 -1640 23 -1709 98
-292 339 -478 637 -493 202 -10 377 58 525 207 68 67 94 103 128 170 83 167
76 40 80 1551 3 1347 3 1347 180 1439 97 51 218 114 267 140 751 397 995 523
1003 515 4 -4 9 -786 12 -1738 5 -1732 5 -1732 32 -1808 39 -111 92 -195 172
-274 84 -82 170 -135 281 -172 69 -23 97 -27 205 -28 104 0 137 4 200 23 244
77 412 249 479 492 21 75 21 75 21 3907 0 2157 4 3843 9 3855 6 16 133 95 422
264 228 133 1026 598 1774 1034 748 437 1369 795 1380 797 16 3 1105 -624
2000 -1151 50 -30 421 -246 825 -481 404 -235 743 -436 752 -447 17 -19 18
-233 18 -3857 0 -3790 0 -3838 20 -3915 93 -366 474 -597 836 -506 134 34 236
91 328 184 127 127 186 248 207 421 5 46 9 778 9 1743 0 1166 3 1662 11 1662
5 0 48 -20 95 -45 124 -66 234 -124 374 -197 264 -138 711 -373 838 -440 132
-71 132 -71 132 -1357 0 -741 4 -1321 10 -1368 19 -168 80 -293 205 -418 257
-257 656 -273 943 -38 102 83 200 248 227 381 13 63 15 284 13 1685 -3 1612
-3 1612 -26 1677 -52 141 -126 250 -225 328 -78 61 -71 58 -557 312 -223 117
-445 234 -495 260 -49 26 -371 195 -715 375 -344 181 -670 352 -725 381 -100
53 -100 53 -105 1651 -5 1500 -7 1602 -24 1658 -44 147 -129 277 -238 365 -31
25 -719 432 -1530 905 -810 472 -1504 877 -1543 900 -38 23 -269 158 -513 300
-442 257 -442 257 -440 704 l3 446 460 5 c385 5 469 8 515 22 236 70 408 233
486 463 25 71 28 95 28 210 0 142 -12 201 -65 307 -75 153 -213 285 -359 342
-127 51 -110 49 -600 55 l-465 6 -5 460 c-6 503 -7 510 -69 635 -56 112 -141
213 -235 276 -145 99 -354 145 -515 113z"/>
<path d="M9760 7585 c-558 -68 -1035 -326 -1399 -758 -197 -235 -362 -562
-429 -857 -65 -280 -64 -254 -60 -1740 4 -1510 -3 -1380 80 -1550 56 -115 176
-237 294 -298 258 -133 553 -101 778 85 95 78 168 187 217 323 24 65 24 65 29
1440 6 1375 6 1375 29 1445 33 100 72 173 133 248 97 120 217 202 368 248 108
34 293 34 400 0 246 -76 418 -247 501 -496 24 -70 24 -70 29 -1440 5 -1370 5
-1370 29 -1440 117 -349 461 -553 813 -480 92 19 237 89 303 146 129 111 209
248 244 417 8 37 11 463 11 1391 0 1426 0 1418 -49 1656 -49 232 -171 520
-309 726 -307 458 -789 786 -1322 900 -221 47 -478 60 -690 34z"/>
</g>
</svg>
