<?xml version="1.0" standalone="no"?>
<!DOCTYPE svg PUBLIC "-//W3C//DTD SVG 20010904//EN"
 "http://www.w3.org/TR/2001/REC-SVG-20010904/DTD/svg10.dtd">
<svg version="1.0" xmlns="http://www.w3.org/2000/svg"
 width="700.000000pt" height="700.000000pt" viewBox="0 0 700.000000 700.000000"
 preserveAspectRatio="xMidYMid meet">
<style>
#crosslogo { fill: #242E4C }
@media (prefers-color-scheme: dark) {
  #crosslogo { fill: #ffffff }
}
</style>
<metadata>
Created by potrace 1.14, written by Peter Selinger 2001-2017
</metadata>
<g id="crosslogo" transform="translate(0.000000,700.000000) scale(0.100000,-0.100000)"
stroke="none">
<path d="M5288 6453 c-3 -7 -2 -339 1 -368 1 -6 30 -10 68 -9 58 0 168 -12
264 -29 76 -14 187 -105 229 -187 15 -29 23 -66 25 -119 12 -252 15 -322 20
-466 3 -88 8 -212 10 -275 2 -63 7 -338 10 -610 7 -531 10 -571 60 -656 29
-49 100 -115 150 -139 41 -19 38 -28 -13 -54 -52 -27 -116 -91 -142 -141 -41
-81 -48 -124 -50 -308 -4 -592 -17 -1101 -45 -1707 -3 -67 -37 -143 -80 -177
-14 -11 -31 -25 -38 -31 -34 -33 -135 -86 -192 -101 -72 -19 -197 -25 -251
-12 -18 5 -24 2 -25 -11 -4 -52 -4 -350 -1 -360 9 -28 345 -4 535 37 244 53
442 237 502 467 28 105 27 94 40 1123 13 995 9 893 39 944 24 41 81 87 116 93
8 2 83 6 165 9 83 3 152 8 155 11 3 2 5 87 5 189 l0 184 -50 1 c-121 1 -287
32 -329 62 -37 26 -50 41 -72 86 -18 37 -17 8 -29 931 -12 942 -13 960 -30
1045 -48 230 -169 387 -385 495 -36 18 -81 35 -100 37 -19 2 -57 8 -85 13 -27
5 -79 12 -115 16 -36 3 -73 8 -84 10 -43 8 -275 14 -278 7z"/>
<path d="M1245 6428 c-75 -11 -158 -30 -195 -44 -220 -87 -373 -256 -424 -469
-27 -115 -26 -69 -42 -1275 -3 -261 -7 -531 -8 -600 -2 -115 -4 -129 -26 -160
-70 -100 -100 -111 -335 -126 -55 -3 -102 -7 -103 -9 -5 -5 -5 -365 -1 -369 2
-2 75 -6 163 -9 146 -6 162 -8 202 -32 25 -14 57 -45 72 -67 25 -38 27 -50 29
-147 0 -58 4 -338 8 -621 14 -1132 13 -1098 30 -1190 51 -293 216 -489 475
-563 89 -26 180 -38 293 -41 40 -1 78 -5 84 -9 6 -4 14 -3 18 3 3 5 11 10 16
10 6 0 7 -6 3 -12 -5 -9 -2 -9 9 1 14 11 17 11 17 0 0 -9 3 -10 8 -4 9 14 55
13 64 0 5 -6 8 -5 8 3 0 6 5 12 11 12 5 0 7 -6 3 -12 -5 -9 -2 -9 9 1 13 11
17 11 17 1 0 -23 11 -3 20 34 4 21 4 36 -1 36 -5 0 -9 5 -9 11 0 6 7 8 16 5
13 -5 14 -3 6 6 -17 21 -18 62 -2 76 8 8 9 11 2 7 -9 -5 -12 2 -10 27 1 19 -1
39 -5 45 -4 6 -1 14 5 16 7 3 9 6 3 6 -5 1 -9 21 -8 46 1 25 -1 45 -5 46 -4 1
-46 3 -94 4 -120 5 -254 32 -311 63 -57 30 -141 119 -162 169 -14 34 -18 79
-30 348 -15 364 -23 674 -30 1190 -5 333 -9 452 -20 487 -28 95 -112 193 -197
231 -15 6 -28 14 -28 17 0 3 20 16 45 29 86 46 157 137 184 237 11 41 15 222
26 1149 9 700 10 733 30 800 26 92 92 183 155 215 83 42 210 71 338 77 l123 6
-2 116 c-1 64 -6 147 -12 184 l-10 68 -146 -2 c-80 -1 -204 -11 -276 -21z"/>
<path d="M3268 6189 c-19 -11 -25 -39 -8 -39 6 0 10 -5 10 -11 0 -5 -3 -8 -8
-5 -4 2 -7 -13 -7 -34 0 -21 3 -36 7 -34 5 3 8 -2 8 -11 0 -9 -4 -14 -8 -11
-4 2 -8 -11 -9 -30 0 -21 3 -31 10 -27 6 4 7 1 1 -8 -14 -23 -15 -49 -1 -49 8
0 7 -4 -3 -10 -10 -6 -11 -10 -2 -10 6 0 12 -5 12 -11 0 -5 -4 -8 -8 -5 -4 2
-9 -6 -10 -20 -1 -13 3 -24 9 -24 8 0 8 -4 2 -12 -11 -14 -14 -50 -3 -43 3 2
7 -6 7 -18 2 -17 0 -19 -7 -7 -8 13 -10 12 -10 -2 0 -10 5 -18 11 -18 6 0 7
-5 2 -12 -13 -22 -13 -48 0 -48 8 0 7 -4 -3 -10 -10 -6 -11 -10 -2 -10 6 0 12
-5 12 -11 0 -5 -4 -8 -8 -5 -4 2 -9 -6 -10 -20 -1 -13 3 -24 9 -24 8 0 8 -4 2
-12 -11 -14 -14 -50 -3 -43 3 2 7 -6 7 -18 2 -17 0 -19 -7 -7 -8 13 -10 12
-10 -2 0 -10 5 -18 11 -18 6 0 7 -5 2 -12 -13 -22 -13 -48 0 -48 8 0 7 -4 -3
-10 -10 -6 -11 -10 -2 -10 6 0 12 -5 12 -11 0 -5 -4 -8 -8 -5 -4 2 -9 -6 -10
-20 -1 -13 3 -24 9 -24 8 0 8 -4 2 -12 -11 -14 -14 -50 -3 -43 3 2 7 -6 7 -18
2 -17 0 -19 -7 -7 -8 13 -10 12 -10 -2 0 -10 5 -18 11 -18 6 0 7 -5 2 -12 -13
-22 -13 -48 0 -48 8 0 7 -4 -3 -10 -10 -6 -11 -10 -2 -10 6 0 12 -5 12 -11 0
-5 -4 -8 -8 -5 -4 2 -9 -6 -10 -20 -1 -13 3 -24 9 -24 6 0 7 -5 2 -12 -14 -22
-10 -72 6 -86 14 -11 14 -11 -1 -6 -10 3 -18 1 -18 -5 0 -6 6 -11 13 -11 8 0
7 -4 -3 -10 -12 -8 -12 -10 -1 -10 11 0 11 -3 0 -17 -10 -11 -10 -14 -1 -9 7
4 12 1 12 -9 0 -9 -5 -13 -10 -10 -17 10 -8 -59 10 -73 13 -11 13 -11 -2 -6
-10 3 -18 1 -18 -5 0 -6 6 -11 13 -11 8 0 7 -4 -3 -10 -12 -8 -12 -10 -1 -10
11 0 11 -3 0 -17 -10 -11 -10 -14 -1 -9 7 4 12 1 12 -9 0 -9 -4 -13 -10 -10
-5 3 -10 -3 -10 -14 0 -12 5 -21 11 -21 8 0 7 -6 -2 -17 -10 -11 -10 -14 -1
-9 7 4 12 1 12 -9 0 -9 -4 -13 -10 -10 -6 3 -10 -4 -10 -17 0 -16 3 -19 9 -10
7 11 9 11 14 -1 3 -9 -2 -21 -11 -29 -11 -9 -14 -10 -8 0 4 7 1 12 -9 12 -9 0
-14 -4 -11 -8 2 -4 -6 -8 -19 -8 -13 0 -21 4 -19 8 3 4 -2 8 -11 8 -9 0 -14
-4 -11 -8 2 -4 -6 -8 -19 -8 -13 0 -21 4 -19 8 3 4 0 8 -5 8 -6 0 -11 -4 -11
-8 0 -10 -366 -9 -376 1 -13 13 -46 8 -38 -5 5 -8 0 -7 -11 2 -10 8 -16 10
-12 3 5 -8 -6 -11 -40 -8 -27 2 -48 4 -48 5 0 1 -35 3 -77 4 -42 1 -74 -2 -72
-6 3 -5 -2 -8 -11 -8 -9 0 -14 4 -11 8 2 4 -4 8 -14 9 -11 1 -22 -2 -25 -8 -4
-5 -11 -9 -16 -9 -6 0 -8 4 -5 8 3 5 -1 9 -9 9 -8 0 -12 -3 -10 -6 2 -3 -49
-6 -113 -7 -65 -1 -147 -2 -183 -4 l-67 -3 0 -191 -1 -192 44 2 c24 1 48 5 53
8 6 3 13 0 15 -6 4 -10 8 -10 15 1 5 7 12 9 15 4 5 -7 24 -8 70 -4 5 1 5 7 2
14 -4 6 1 3 9 -7 16 -20 16 -20 31 0 13 16 14 16 9 1 -5 -15 -3 -16 19 -8 18
7 27 7 31 -2 3 -9 7 -9 14 2 5 7 12 9 15 4 5 -7 22 -8 71 -4 5 1 5 7 0 14 -5
7 -1 4 9 -7 14 -15 20 -17 26 -7 5 7 11 9 14 4 5 -7 24 -8 70 -4 5 1 5 7 2 14
-4 6 1 3 10 -8 14 -17 17 -18 26 -5 8 11 12 12 16 3 3 -9 10 -10 24 -3 12 7
19 7 19 1 0 -6 7 -8 15 -5 8 4 12 11 9 18 -3 6 0 4 8 -5 16 -19 74 -18 70 2
-2 11 1 10 10 -1 13 -15 42 -18 72 -7 9 4 16 2 16 -3 0 -6 5 -10 11 -10 5 0 8
4 5 8 -2 4 4 8 15 8 10 0 19 -4 19 -8 0 -4 11 -3 25 2 18 7 25 6 25 -3 0 -8 3
-8 9 2 7 10 10 10 13 1 3 -10 9 -10 25 -1 14 7 24 8 28 1 4 -7 13 -7 26 0 11
6 19 7 19 1 0 -5 11 -8 24 -7 13 0 22 4 19 9 -2 4 1 7 6 7 6 0 11 -4 11 -8 0
-4 31 -7 70 -7 38 1 74 -1 79 -5 7 -4 12 -161 13 -440 2 -275 7 -438 13 -442
7 -5 6 -8 -1 -8 -11 0 -12 -49 -1 -67 4 -6 3 -15 -3 -18 -8 -5 -7 -12 2 -23
10 -12 10 -14 1 -8 -7 4 -13 3 -13 -3 0 -5 6 -12 13 -14 10 -4 10 -6 0 -6 -7
-1 -13 -9 -13 -18 0 -15 2 -16 10 -3 7 12 9 10 7 -7 0 -12 -5 -19 -9 -17 -4 3
-8 1 -8 -5 0 -5 5 -13 10 -16 6 -3 10 -12 10 -18 0 -7 -4 -6 -10 3 -8 12 -10
10 -10 -11 0 -14 3 -29 7 -33 12 -11 12 -37 0 -29 -7 4 -8 0 -3 -13 4 -10 10
-30 12 -44 3 -19 2 -22 -6 -10 -8 13 -10 13 -10 -2 0 -9 5 -20 10 -23 6 -3 10
-12 10 -18 0 -7 -4 -6 -10 3 -9 13 -10 13 -10 0 0 -9 5 -21 12 -28 8 -8 8 -15
-2 -27 -8 -10 -9 -15 -1 -15 6 0 11 -5 11 -11 0 -5 -4 -7 -10 -4 -11 7 -14 -8
-3 -19 11 -10 12 -37 2 -30 -12 7 -11 -3 1 -26 7 -13 7 -21 0 -25 -8 -5 -7
-11 1 -21 9 -11 9 -17 -1 -29 -9 -10 -9 -15 -1 -15 6 0 11 -5 11 -11 0 -5 -4
-7 -10 -4 -5 3 -10 2 -10 -4 0 -5 5 -13 11 -16 6 -4 7 -14 3 -24 -11 -25 -14
-147 -3 -130 7 11 9 8 9 -9 0 -13 -4 -20 -10 -17 -5 3 -10 -1 -10 -10 0 -9 4
-14 9 -10 5 3 13 0 17 -6 4 -7 3 -9 -4 -5 -6 3 -13 2 -17 -4 -3 -5 0 -10 7
-10 9 0 9 -3 -2 -10 -11 -7 -11 -10 -2 -10 8 0 10 -5 5 -12 -15 -26 -14 -60 4
-75 17 -14 17 -14 1 -9 -12 3 -18 0 -18 -10 0 -8 4 -13 9 -9 5 3 13 0 17 -6 4
-7 3 -9 -4 -5 -6 3 -13 2 -17 -4 -3 -5 -1 -10 4 -10 6 0 11 -5 11 -11 0 -5 -4
-8 -9 -5 -15 10 -7 -34 9 -45 13 -9 12 -10 -2 -5 -10 3 -18 1 -18 -4 0 -6 6
-10 13 -10 8 0 7 -4 -3 -10 -11 -7 -11 -10 -2 -10 8 0 10 -5 5 -12 -13 -21
-15 -61 -3 -68 6 -3 12 -16 15 -29 2 -12 0 -19 -6 -16 -5 4 -7 10 -4 15 3 5 0
12 -6 15 -14 9 -8 -37 6 -47 6 -5 4 -8 -4 -8 -11 0 -10 -4 5 -16 16 -13 16
-15 2 -10 -12 3 -18 0 -18 -10 0 -8 4 -13 9 -9 5 3 13 1 16 -5 4 -6 3 -10 -2
-9 -20 3 -27 -2 -14 -10 8 -5 15 -23 16 -40 1 -16 -2 -28 -7 -25 -5 3 -6 9 -3
14 3 5 1 11 -5 15 -6 4 -9 -4 -8 -19 1 -15 7 -26 12 -26 6 0 5 -5 -2 -12 -19
-19 -14 -32 5 -17 17 13 17 13 0 -13 -20 -32 -22 -45 -4 -30 10 8 13 6 13 -9
0 -11 -5 -18 -11 -15 -6 2 -12 -8 -13 -22 -2 -25 -2 -25 13 -6 15 19 15 19 8
-1 -3 -11 -9 -24 -13 -30 -12 -16 -8 -46 5 -41 6 2 12 -2 12 -10 0 -8 -5 -13
-12 -11 -8 4 -11 -27 -11 -107 0 -87 4 -114 16 -124 13 -12 13 -13 0 -9 -12 4
-16 -3 -17 -29 -1 -30 1 -33 15 -22 13 10 13 7 -2 -16 -13 -21 -15 -28 -4 -24
9 4 14 -1 14 -13 0 -21 -12 -25 -19 -6 -2 6 -4 -3 -3 -21 1 -24 5 -31 15 -27
11 4 10 1 -2 -13 -20 -22 -19 -41 3 -60 13 -12 13 -13 -1 -9 -11 4 -15 -2 -15
-24 0 -17 4 -28 10 -26 7 3 11 -11 11 -34 0 -38 -9 -51 -18 -26 -2 6 -4 -9 -4
-35 0 -26 4 -45 8 -43 3 3 9 -7 12 -20 2 -14 0 -28 -6 -32 -5 -3 -7 -2 -4 3 3
6 2 16 -3 24 -7 10 -9 -1 -7 -33 1 -29 6 -46 13 -43 7 3 9 -5 6 -22 -5 -24 -6
-25 -13 -7 -6 14 -7 8 -5 -20 1 -26 7 -39 15 -37 7 1 10 -2 6 -8 -3 -6 -11 -8
-16 -5 -5 4 -9 1 -9 -4 0 -6 5 -11 11 -11 8 0 7 -6 -2 -17 -10 -11 -10 -14 -1
-9 7 4 12 1 12 -9 0 -9 -5 -13 -10 -10 -7 4 -10 -6 -8 -28 1 -19 7 -34 14 -34
9 0 10 5 3 18 -12 24 -11 39 2 17 5 -9 16 -15 23 -12 8 3 17 0 21 -6 5 -8 11
-7 23 2 13 11 15 11 10 -2 -4 -11 2 -15 28 -15 18 0 36 4 40 8 4 3 -4 4 -16 2
-12 -2 -20 -1 -16 2 13 13 40 12 70 -4 24 -13 28 -13 19 -2 -10 12 -5 14 27
14 26 0 36 -3 30 -10 -6 -7 -2 -11 9 -11 10 0 17 5 15 11 -2 6 10 11 27 11 20
1 27 -1 18 -6 -7 -5 -18 -6 -24 -3 -5 4 -7 3 -3 -2 10 -11 78 -14 84 -4 2 5
-5 6 -16 4 -11 -2 -18 0 -15 5 8 12 56 5 66 -11 6 -10 8 -6 5 11 -3 14 -5 25
-6 25 -1 0 -3 17 -4 37 -1 20 1 35 6 32 4 -3 8 2 8 11 0 9 -4 14 -8 11 -11 -7
-9 90 2 101 5 5 6 2 1 -6 -5 -9 -4 -12 3 -7 6 4 9 13 6 21 -4 8 -9 13 -13 11
-4 -3 -8 5 -8 17 -2 17 0 19 7 7 8 -13 10 -13 10 2 0 9 -4 19 -9 23 -6 3 -9
14 -8 25 1 10 5 16 9 14 4 -3 8 2 8 11 0 9 -4 14 -8 11 -5 -3 -9 1 -9 9 0 8 4
12 8 10 4 -3 9 2 12 9 3 8 1 16 -5 18 -6 2 -12 18 -13 36 -1 17 2 29 7 26 4
-3 8 2 8 11 0 9 -3 14 -8 11 -4 -2 -7 20 -7 49 0 29 3 51 7 49 5 -3 8 2 8 11
0 9 -4 14 -8 11 -11 -7 -9 90 2 101 5 5 6 2 1 -6 -5 -9 -4 -12 3 -7 6 4 9 13
6 21 -4 8 -9 13 -13 11 -4 -3 -8 5 -8 17 -2 17 0 19 7 7 8 -13 10 -13 10 2 0
9 -4 19 -9 23 -6 3 -9 14 -8 25 1 10 5 16 9 14 4 -3 8 2 8 11 0 9 -4 14 -8 11
-5 -3 -9 1 -9 9 0 8 4 12 8 10 4 -3 9 2 12 9 3 8 1 16 -5 18 -6 2 -12 18 -13
36 -1 17 2 29 7 26 4 -3 8 2 8 11 0 9 -3 14 -8 11 -4 -2 -7 20 -7 49 0 29 3
51 7 49 5 -3 8 2 8 11 0 9 -3 14 -8 11 -4 -2 -8 26 -8 64 0 38 4 66 8 64 5 -3
8 2 8 11 0 9 -4 14 -8 11 -5 -3 -9 1 -9 9 0 8 4 12 9 9 4 -3 8 2 8 11 0 9 -4
14 -8 11 -5 -3 -9 1 -9 9 0 8 4 12 9 9 4 -3 8 2 8 11 0 9 -4 14 -8 11 -5 -3
-9 1 -9 9 0 8 4 12 8 10 4 -3 9 2 12 9 3 8 1 16 -5 18 -6 2 -12 18 -13 36 -1
17 2 29 7 26 4 -3 8 2 8 11 0 9 -3 14 -8 11 -4 -2 -7 20 -7 49 0 29 3 51 7 49
5 -3 8 2 8 11 0 9 -4 14 -8 11 -11 -7 -9 90 2 101 5 5 6 2 1 -6 -5 -9 -4 -12
3 -7 6 4 9 13 6 21 -4 8 -9 13 -13 11 -4 -3 -8 5 -8 17 -2 17 0 19 7 7 8 -13
10 -13 10 2 0 9 -4 19 -9 23 -6 3 -9 14 -8 25 1 10 5 16 9 14 4 -3 8 2 8 11 0
9 -4 14 -8 11 -5 -3 -9 1 -9 9 0 8 4 12 8 10 4 -3 9 2 12 9 3 8 1 16 -5 18 -6
2 -12 18 -13 36 -1 17 2 29 7 26 4 -3 8 2 8 11 0 9 -3 14 -8 11 -4 -2 -7 20
-7 49 0 29 3 51 7 49 5 -3 8 2 8 11 0 9 -4 14 -8 11 -11 -7 -9 90 2 101 5 5 6
2 1 -6 -5 -9 -4 -12 3 -7 6 4 9 13 6 21 -4 8 -9 13 -13 11 -4 -3 -8 5 -8 17
-2 17 0 19 7 7 8 -13 10 -13 10 2 0 9 -4 19 -9 23 -6 3 -9 14 -8 25 1 10 5 16
9 14 4 -3 8 2 8 11 0 9 -4 14 -8 11 -5 -3 -9 1 -9 9 0 8 4 12 8 10 4 -3 9 2
12 9 3 8 1 16 -5 18 -6 2 -12 18 -13 36 -1 17 2 29 7 26 4 -3 8 2 8 11 0 9 -3
14 -8 11 -4 -2 -7 20 -7 49 0 29 3 51 7 49 5 -3 8 2 8 11 0 9 -4 14 -8 11 -11
-7 -9 90 2 101 5 5 6 2 1 -6 -5 -9 -4 -12 3 -7 6 4 9 13 6 21 -4 8 -9 13 -13
11 -4 -3 -8 5 -8 17 -2 17 0 19 7 7 8 -13 10 -13 10 2 0 9 -4 19 -9 23 -6 3
-9 14 -8 25 1 10 5 16 9 14 4 -3 8 2 8 11 0 9 -4 14 -8 11 -5 -3 -9 1 -9 9 0
8 4 12 8 10 4 -3 9 2 12 9 3 8 1 16 -5 18 -6 2 -12 18 -13 36 -1 17 2 29 7 26
4 -3 8 2 8 11 0 9 -3 14 -8 11 -4 -2 -7 20 -7 49 0 29 3 51 7 49 5 -3 8 2 8
11 0 9 -4 14 -8 11 -11 -7 -9 90 2 101 5 5 6 2 1 -6 -5 -9 -4 -12 3 -7 6 4 9
13 6 21 -4 8 -9 13 -13 11 -4 -3 -8 5 -8 17 -2 17 0 19 7 7 8 -13 10 -13 10 2
0 9 -4 19 -9 23 -6 3 -9 14 -8 25 1 10 5 16 9 14 4 -3 8 2 8 11 0 9 -4 14 -8
11 -5 -3 -9 1 -9 9 0 8 4 12 8 10 4 -3 9 2 12 9 3 8 1 16 -5 18 -6 2 -12 18
-13 36 -1 17 2 29 7 26 4 -3 8 2 8 11 0 9 -3 14 -8 11 -4 -2 -7 20 -7 49 0 29
3 51 7 49 5 -3 8 2 8 11 0 9 -4 14 -8 11 -4 -2 -8 14 -7 37 l0 42 70 0 c39 0
75 4 82 8 6 4 13 2 15 -4 3 -9 9 -9 26 0 15 8 22 8 22 1 0 -8 6 -8 20 0 14 8
20 8 20 0 0 -7 6 -8 19 0 12 6 22 6 25 1 7 -11 25 -9 45 3 8 5 16 4 21 -4 10
-16 33 -3 24 13 -3 7 0 5 8 -3 13 -15 42 -18 72 -7 9 4 16 3 16 -1 0 -4 24 -8
54 -7 30 0 52 3 49 8 -2 4 1 7 6 7 6 0 11 -4 11 -10 0 -5 5 -10 11 -10 5 0 8
4 5 8 -2 4 4 8 15 8 10 0 19 -3 19 -6 0 -7 54 -5 68 4 7 4 12 4 12 -1 0 -9
122 -9 138 1 5 3 13 0 15 -6 4 -9 8 -9 14 -3 10 13 33 18 33 7 0 -9 83 -7 98
2 6 3 13 0 15 -6 4 -9 8 -9 14 -3 11 14 33 17 33 5 0 -7 6 -7 20 0 11 6 20 7
20 2 0 -11 53 -9 62 3 5 6 8 5 8 -2 0 -7 5 -13 11 -13 5 0 8 4 4 9 -3 6 7 6
26 1 25 -7 30 -6 25 5 -3 9 0 12 10 8 14 -5 14 14 -2 65 -2 6 2 12 9 13 7 0 3
4 -8 9 -17 7 -17 9 -2 9 19 1 24 21 5 21 -8 0 -9 3 -2 10 13 13 7 89 -8 108
-8 9 -7 11 3 7 11 -4 14 4 12 35 -1 22 -5 45 -8 50 -3 6 0 10 7 10 8 1 5 7 -7
17 -16 13 -17 15 -2 10 20 -8 23 6 3 22 -9 8 -15 8 -18 1 -2 -7 -14 -7 -36 -1
-17 5 -32 6 -32 1 0 -4 -8 -7 -17 -6 -11 0 -17 -5 -15 -14 2 -8 0 -11 -5 -7
-4 5 -9 13 -9 18 -1 5 -2 12 -3 15 0 4 -8 0 -18 -7 -9 -8 -17 -14 -17 -13 -1
0 -11 6 -23 13 -18 9 -23 9 -23 0 0 -7 -3 -9 -7 -6 -3 4 -16 -1 -27 -10 -17
-15 -19 -15 -8 -1 8 10 9 19 3 22 -5 4 -12 2 -15 -3 -4 -5 -19 -7 -34 -5 -52
10 -81 6 -108 -16 -17 -14 -18 -13 -6 2 8 10 9 19 3 22 -5 4 -12 2 -15 -2 -3
-5 -22 -8 -43 -6 -48 4 -146 6 -155 4 -5 -2 -11 -3 -15 -4 -5 -1 -14 -5 -22
-10 -9 -6 -12 -5 -7 2 3 6 2 13 -3 16 -5 4 -12 2 -16 -4 -4 -6 -11 -8 -16 -4
-18 11 -79 6 -96 -7 -10 -8 -14 -9 -10 -2 4 6 3 14 -3 18 -5 3 -10 3 -10 -2 0
-9 -78 -8 -87 1 -4 3 -15 -2 -25 -11 -11 -10 -19 -13 -18 -8 4 21 -1 24 -22
16 -13 -5 -32 -5 -43 -1 -11 4 -31 3 -44 -2 -13 -5 -27 -5 -30 -1 -3 4 -42 8
-86 8 l-80 0 -2 55 c-1 30 -4 85 -6 122 -2 41 1 64 7 61 5 -4 6 -1 2 6 -11 17
-14 131 -4 137 4 3 8 11 8 17 0 7 -4 6 -11 -3 -7 -11 -8 -3 -3 29 3 25 2 41
-3 38 -5 -3 -9 3 -9 13 0 13 4 16 11 10 14 -11 14 25 0 37 -4 5 -5 2 0 -6 5
-9 4 -12 -3 -8 -11 7 -11 32 1 43 4 4 7 14 7 23 0 13 -2 14 -9 2 -7 -10 -9 -7
-8 11 1 16 7 24 15 21 8 -4 10 0 6 11 -3 9 -9 14 -13 12 -4 -3 -7 6 -7 19 0
13 4 21 8 19 4 -3 8 5 8 18 0 15 -3 19 -8 11 -4 -7 -8 48 -7 121 0 74 2 133 5
131 3 -2 6 21 7 50 0 35 -3 52 -10 48 -6 -4 -7 -1 -1 8 5 8 10 25 12 37 2 17
-1 22 -10 16 -10 -6 -10 -4 -3 7 6 8 12 28 13 44 2 23 1 27 -7 15 -6 -8 -11
-10 -11 -4 0 6 7 17 15 24 12 10 13 16 4 26 -9 11 -8 14 2 14 8 1 3 7 -11 15
-14 8 -20 14 -14 15 14 0 13 42 -1 52 -7 5 -6 8 0 8 7 0 10 29 10 78 -1 42 1
82 4 87 9 17 10 35 1 40 -5 3 -7 -5 -5 -17 4 -23 4 -23 -16 2 -16 19 -19 20
-15 6 6 -16 4 -17 -9 -6 -8 7 -23 10 -34 7 -10 -2 -27 0 -37 6 -16 9 -17 8 -7
-4 10 -12 8 -15 -10 -14 -12 1 -30 5 -39 9 -10 4 -23 6 -30 3 -7 -2 -22 0 -33
6 -17 9 -18 8 -8 -4 10 -12 8 -15 -12 -14 -13 0 -27 3 -31 7 -4 4 -14 2 -22
-5 -13 -10 -15 -9 -10 3 4 11 -1 15 -18 15 -13 -1 -27 -5 -31 -10 -5 -4 -1 -5
7 0 9 5 12 5 7 -1 -5 -5 -18 -9 -30 -9 -12 -1 -29 -5 -37 -10 -9 -5 -8 0 4 13
21 24 20 26 -6 11z m6 -175 c3 -8 2 -12 -4 -9 -6 3 -10 10 -10 16 0 14 7 11
14 -7z m417 -137 c-1 -12 -15 -9 -19 4 -3 6 1 10 8 8 6 -3 11 -8 11 -12z m-4
-72 c0 -8 -4 -12 -9 -9 -5 3 -6 10 -3 15 9 13 12 11 12 -6z m0 -160 c0 -8 -4
-12 -9 -9 -5 3 -6 10 -3 15 9 13 12 11 12 -6z m-412 -574 c3 -5 2 -12 -3 -15
-5 -3 -9 1 -9 9 0 17 3 19 12 6z m-2 -156 c4 -8 3 -16 -1 -19 -4 -3 -9 4 -9
15 -2 23 3 25 10 4z m-6 -2367 c-3 -8 -6 -5 -6 6 -1 11 2 17 5 13 3 -3 4 -12
1 -19z m8 -147 c3 -5 2 -12 -3 -15 -5 -3 -9 1 -9 9 0 17 3 19 12 6z m0 -261
c1 -10 -2 -17 -6 -14 -4 2 -7 13 -6 24 2 23 10 17 12 -10z m2 -525 c0 -8 -4
-12 -9 -9 -5 3 -6 10 -3 15 9 13 12 11 12 -6z m0 -45 c1 -11 -2 -20 -7 -20 -6
0 -7 17 -1 38 3 8 7 -1 8 -18z m-1 -50 c0 -12 -4 -16 -9 -11 -5 5 -6 14 -3 20
10 15 12 14 12 -9z m-2 -46 c3 -8 2 -12 -4 -9 -6 3 -10 10 -10 16 0 14 7 11
14 -7z m3 -239 c0 -8 -4 -12 -9 -9 -5 3 -6 10 -3 15 9 13 12 11 12 -6z m-1
-195 c0 -12 -4 -16 -9 -11 -5 5 -6 14 -3 20 10 15 12 14 12 -9z m4 -200 c0 -5
-5 -10 -11 -10 -5 0 -7 5 -4 10 3 6 8 10 11 10 2 0 4 -4 4 -10z"/>
<path d="M3410 6190 c0 -5 5 -10 11 -10 5 0 7 5 4 10 -3 6 -8 10 -11 10 -2 0
-4 -4 -4 -10z"/>
<path d="M3530 6190 c0 -5 5 -10 11 -10 5 0 7 5 4 10 -3 6 -8 10 -11 10 -2 0
-4 -4 -4 -10z"/>
<path d="M3693 6071 c0 -11 5 -18 9 -15 4 3 5 11 1 19 -7 21 -12 19 -10 -4z"/>
<path d="M3693 5575 c0 -8 4 -12 9 -9 5 3 6 10 3 15 -9 13 -12 11 -12 -6z"/>
<path d="M3693 5395 c0 -8 4 -12 9 -9 5 3 6 10 3 15 -9 13 -12 11 -12 -6z"/>
<path d="M2626 4662 c-3 -5 1 -9 9 -9 8 0 12 4 9 9 -3 4 -7 8 -9 8 -2 0 -6 -4
-9 -8z"/>
<path d="M2840 4660 c-12 -7 -10 -9 8 -7 12 0 22 5 22 9 0 11 -12 10 -30 -2z"/>
<path d="M2950 4660 c0 -5 5 -10 11 -10 5 0 7 5 4 10 -3 6 -8 10 -11 10 -2 0
-4 -4 -4 -10z"/>
<path d="M3040 4660 c-12 -7 -10 -9 7 -7 12 0 19 5 17 9 -6 10 -6 10 -24 -2z"/>
<path d="M3086 4662 c-3 -5 1 -9 9 -9 8 0 12 4 9 9 -3 4 -7 8 -9 8 -2 0 -6 -4
-9 -8z"/>
<path d="M3693 4231 c0 -11 5 -18 9 -15 4 3 5 11 1 19 -7 21 -12 19 -10 -4z"/>
<path d="M3693 4105 c0 -8 4 -12 9 -9 5 3 6 10 3 15 -9 13 -12 11 -12 -6z"/>
<path d="M3693 3751 c0 -11 5 -18 9 -15 4 3 5 11 1 19 -7 21 -12 19 -10 -4z"/>
<path d="M3693 3625 c0 -8 4 -12 9 -9 5 3 6 10 3 15 -9 13 -12 11 -12 -6z"/>
<path d="M3693 3271 c0 -11 5 -18 9 -15 4 3 5 11 1 19 -7 21 -12 19 -10 -4z"/>
<path d="M3693 3145 c0 -8 4 -12 9 -9 5 3 6 10 3 15 -9 13 -12 11 -12 -6z"/>
<path d="M3693 2791 c0 -11 5 -18 9 -15 4 3 5 11 1 19 -7 21 -12 19 -10 -4z"/>
<path d="M3693 2665 c0 -8 4 -12 9 -9 5 3 6 10 3 15 -9 13 -12 11 -12 -6z"/>
<path d="M3693 2311 c0 -11 5 -18 9 -15 4 3 5 11 1 19 -7 21 -12 19 -10 -4z"/>
<path d="M3693 2185 c0 -8 4 -12 9 -9 5 3 6 10 3 15 -9 13 -12 11 -12 -6z"/>
<path d="M3693 1875 c0 -8 4 -12 9 -9 5 3 6 10 3 15 -9 13 -12 11 -12 -6z"/>
<path d="M3693 1831 c0 -11 5 -18 9 -15 4 3 5 11 1 19 -7 21 -12 19 -10 -4z"/>
<path d="M3693 1705 c0 -8 4 -12 9 -9 5 3 6 10 3 15 -9 13 -12 11 -12 -6z"/>
<path d="M3693 1351 c0 -11 5 -18 9 -15 4 3 5 11 1 19 -7 21 -12 19 -10 -4z"/>
<path d="M3693 1225 c0 -8 4 -12 9 -9 5 3 6 10 3 15 -9 13 -12 11 -12 -6z"/>
<path d="M3251 1114 c0 -11 3 -14 6 -6 3 7 2 16 -1 19 -3 4 -6 -2 -5 -13z"/>
<path d="M3693 871 c0 -11 5 -18 9 -15 4 3 5 11 1 19 -7 21 -12 19 -10 -4z"/>
<path d="M3693 745 c0 -8 4 -12 9 -9 5 3 6 10 3 15 -9 13 -12 11 -12 -6z"/>
<path d="M3295 690 c3 -5 8 -10 11 -10 2 0 4 5 4 10 0 6 -5 10 -11 10 -5 0 -7
-4 -4 -10z"/>
<path d="M3495 690 c3 -5 8 -10 11 -10 2 0 4 5 4 10 0 6 -5 10 -11 10 -5 0 -7
-4 -4 -10z"/>
</g>
</svg>
